<svg width="33" height="33" viewBox="0 0 33 33" fill="none" xmlns="http://www.w3.org/2000/svg">
<path d="M20.786 28.1001V18.8121H23.8967L24.362 15.2014H20.786V12.8974C20.786 11.8521 21.0767 11.1388 22.5753 11.1388H24.4873V7.90943C23.5617 7.81122 22.6315 7.7636 21.7007 7.76676C18.9447 7.76676 17.058 9.44943 17.058 12.5401V15.2014H13.9407V18.8121H17.058V28.1001H5.58333C5.22971 28.1001 4.89057 27.9596 4.64052 27.7096C4.39048 27.4595 4.25 27.1204 4.25 26.7668V5.43343C4.25 5.07981 4.39048 4.74067 4.64052 4.49062C4.89057 4.24057 5.22971 4.1001 5.58333 4.1001H26.9167C27.2703 4.1001 27.6094 4.24057 27.8595 4.49062C28.1095 4.74067 28.25 5.07981 28.25 5.43343V26.7668C28.25 27.1204 28.1095 27.4595 27.8595 27.7096C27.6094 27.9596 27.2703 28.1001 26.9167 28.1001H20.786Z" fill="#5D6370"/>
</svg>
