<svg width="33" height="33" viewBox="0 0 33 33" fill="none" xmlns="http://www.w3.org/2000/svg">
<path d="M16.2498 2.7666C19.8725 2.7666 20.3245 2.77993 21.7458 2.8466C23.1658 2.91327 24.1325 3.13594 24.9832 3.4666C25.8632 3.80527 26.6045 4.26393 27.3458 5.00393C28.0238 5.67046 28.5484 6.47672 28.8832 7.3666C29.2125 8.21593 29.4365 9.18393 29.5032 10.6039C29.5658 12.0253 29.5832 12.4773 29.5832 16.0999C29.5832 19.7226 29.5698 20.1746 29.5032 21.5959C29.4365 23.0159 29.2125 23.9826 28.8832 24.8333C28.5494 25.7236 28.0247 26.5301 27.3458 27.1959C26.6791 27.8737 25.8729 28.3983 24.9832 28.7333C24.1338 29.0626 23.1658 29.2866 21.7458 29.3533C20.3245 29.4159 19.8725 29.4333 16.2498 29.4333C12.6272 29.4333 12.1752 29.4199 10.7538 29.3533C9.33384 29.2866 8.36717 29.0626 7.5165 28.7333C6.62627 28.3992 5.81987 27.8745 5.15384 27.1959C4.47571 26.5295 3.95108 25.7232 3.6165 24.8333C3.28584 23.9839 3.06317 23.0159 2.9965 21.5959C2.93384 20.1746 2.9165 19.7226 2.9165 16.0999C2.9165 12.4773 2.92984 12.0253 2.9965 10.6039C3.06317 9.1826 3.28584 8.21727 3.6165 7.3666C3.95015 6.47617 4.47491 5.6697 5.15384 5.00393C5.82007 4.32558 6.62641 3.80091 7.5165 3.4666C8.36717 3.13594 9.3325 2.91327 10.7538 2.8466C12.1752 2.78393 12.6272 2.7666 16.2498 2.7666ZM16.2498 9.43327C14.4817 9.43327 12.786 10.1356 11.5358 11.3859C10.2855 12.6361 9.58317 14.3318 9.58317 16.0999C9.58317 17.868 10.2855 19.5637 11.5358 20.814C12.786 22.0642 14.4817 22.7666 16.2498 22.7666C18.0179 22.7666 19.7136 22.0642 20.9639 20.814C22.2141 19.5637 22.9165 17.868 22.9165 16.0999C22.9165 14.3318 22.2141 12.6361 20.9639 11.3859C19.7136 10.1356 18.0179 9.43327 16.2498 9.43327ZM24.9165 9.09994C24.9165 8.65791 24.7409 8.23398 24.4284 7.92142C24.1158 7.60886 23.6919 7.43327 23.2498 7.43327C22.8078 7.43327 22.3839 7.60886 22.0713 7.92142C21.7588 8.23398 21.5832 8.65791 21.5832 9.09994C21.5832 9.54196 21.7588 9.96589 22.0713 10.2784C22.3839 10.591 22.8078 10.7666 23.2498 10.7666C23.6919 10.7666 24.1158 10.591 24.4284 10.2784C24.7409 9.96589 24.9165 9.54196 24.9165 9.09994ZM16.2498 12.0999C17.3107 12.0999 18.3281 12.5214 19.0783 13.2715C19.8284 14.0217 20.2498 15.0391 20.2498 16.0999C20.2498 17.1608 19.8284 18.1782 19.0783 18.9284C18.3281 19.6785 17.3107 20.0999 16.2498 20.0999C15.189 20.0999 14.1716 19.6785 13.4214 18.9284C12.6713 18.1782 12.2498 17.1608 12.2498 16.0999C12.2498 15.0391 12.6713 14.0217 13.4214 13.2715C14.1716 12.5214 15.189 12.0999 16.2498 12.0999Z" fill="#5D6370"/>
</svg>
