<svg width="33" height="33" viewBox="0 0 33 33" fill="none" xmlns="http://www.w3.org/2000/svg">
<g clip-path="url(#clip0_799_13173)">
<path d="M16.2341 28.1001C13.157 28.1001 10.0796 28.1001 7.00182 28.1001C5.34137 28.1001 4.25098 27.006 4.25098 25.3399C4.25098 19.1844 4.25098 13.0296 4.25098 6.87535C4.25098 5.18116 5.33575 4.10107 7.03369 4.10107H25.5039C27.1634 4.10107 28.2547 5.19616 28.2547 6.86035C28.2547 13.0158 28.2547 19.1726 28.2547 25.3305C28.2547 27.0182 27.1681 28.1039 25.4711 28.1048C22.3908 28.1029 19.3118 28.1014 16.2341 28.1001ZM8.0819 7.74636C10.2383 10.8882 12.3432 13.9522 14.4574 17.0283L8.0819 24.4464C8.55913 24.4464 8.91915 24.467 9.27543 24.4361C9.43662 24.416 9.58579 24.3404 9.69734 24.2223C10.4727 23.3448 11.2312 22.4531 11.9953 21.5653L15.0893 17.9706C15.23 18.1675 15.35 18.3287 15.4644 18.4938C16.7554 20.3689 18.0492 22.2441 19.329 24.1295C19.3883 24.2355 19.4766 24.3222 19.5836 24.3795C19.6906 24.4368 19.8118 24.4623 19.9328 24.453C21.2914 24.438 22.6518 24.4474 24.0094 24.4445C24.135 24.4374 24.2602 24.4236 24.3844 24.4033C24.285 24.2523 24.2194 24.1473 24.1491 24.0451C22.1177 21.0887 20.0835 18.1331 18.0464 15.1785C17.8486 14.8972 17.8589 14.7322 18.0905 14.4725C19.8831 12.4127 21.6645 10.3369 23.4459 8.26484C23.5725 8.11764 23.6887 7.96294 23.8613 7.74636C23.5359 7.74636 23.2987 7.77167 23.0746 7.74073C22.6274 7.68073 22.3246 7.84856 22.0433 8.19921C21.4076 8.98958 20.7307 9.74714 20.0688 10.516C19.1134 11.626 18.1552 12.7352 17.1764 13.8706C17.0507 13.6981 16.9504 13.564 16.8557 13.4271C15.6275 11.6401 14.3936 9.85684 13.1767 8.06232C13.117 7.95594 13.028 7.86897 12.9203 7.81178C12.8126 7.7546 12.6907 7.72961 12.5691 7.7398C11.6794 7.75667 10.7877 7.74636 9.89892 7.74636H8.0819Z" fill="#5D6370"/>
<path d="M10.0508 8.81131C10.7596 8.81131 11.3681 8.79725 11.9747 8.82069C12.0556 8.82728 12.1344 8.8499 12.2066 8.88724C12.2787 8.92459 12.3426 8.9759 12.3947 9.0382C15.7112 13.7654 19.0199 18.4968 22.3208 23.2321C22.3494 23.289 22.373 23.3483 22.3911 23.4093C21.6964 23.4093 21.0307 23.429 20.3697 23.3934C20.2338 23.3859 20.0819 23.1881 19.9834 23.0474C17.6357 19.6984 15.2918 16.3475 12.9516 12.9948C12.0941 11.7665 11.2349 10.5389 10.3742 9.31198C10.2805 9.1779 10.1942 9.03352 10.0508 8.81131Z" fill="#5D6370"/>
</g>
<defs>
<clipPath id="clip0_799_13173">
<rect width="24" height="24" fill="white" transform="translate(4.25 4.1001)"/>
</clipPath>
</defs>
</svg>
