<svg width="33" height="33" viewBox="0 0 33 33" fill="none" xmlns="http://www.w3.org/2000/svg">
<path d="M28.9738 8.76426C29.5832 11.1403 29.5832 16.1003 29.5832 16.1003C29.5832 16.1003 29.5832 21.0603 28.9738 23.4363C28.6352 24.7496 27.6445 25.7829 26.3898 26.1323C24.1112 26.7669 16.2498 26.7669 16.2498 26.7669C16.2498 26.7669 8.3925 26.7669 6.10984 26.1323C4.84984 25.7776 3.8605 24.7456 3.52584 23.4363C2.9165 21.0603 2.9165 16.1003 2.9165 16.1003C2.9165 16.1003 2.9165 11.1403 3.52584 8.76426C3.8645 7.45093 4.85517 6.41759 6.10984 6.06826C8.3925 5.43359 16.2498 5.43359 16.2498 5.43359C16.2498 5.43359 24.1112 5.43359 26.3898 6.06826C27.6498 6.42293 28.6392 7.45493 28.9738 8.76426ZM13.5832 20.7669L21.5832 16.1003L13.5832 11.4336V20.7669Z" fill="#5D6370"/>
</svg>
