<svg width="137" height="106" viewBox="0 0 137 106" fill="none" xmlns="http://www.w3.org/2000/svg">
<path d="M136.396 35.5214C136.314 32.2606 136.018 29.0086 135.51 25.7864C134.719 20.6673 133.423 15.6388 131.643 10.7743C129.225 4.15606 125.917 -2.10192 121.809 -7.82696C117.963 -13.1532 113.459 -17.9715 108.404 -22.1672C105.558 -24.5627 102.546 -26.7534 99.3897 -28.7227C97.3861 -29.9522 95.0082 -30.4233 92.6871 -30.0505C90.3661 -29.6776 88.2552 -28.4856 86.7374 -26.6905C85.2786 -24.93 84.4789 -22.7162 84.4757 -20.4299C84.4719 -18.7848 84.8923 -17.1665 85.6961 -15.7312C86.4999 -14.2958 87.66 -13.0919 89.0647 -12.2355C91.4671 -10.7613 93.762 -9.11826 95.9317 -7.3189C101.033 -3.07816 105.378 1.99802 108.78 7.69323C112.68 14.2298 115.258 21.4686 116.368 28.9986C116.693 31.1433 116.895 33.3046 116.975 35.4722C117.263 43.1155 116.037 50.7403 113.369 57.9085C111.082 64.1117 107.757 69.8809 103.536 74.9692L97.3083 82.4589C95.6423 84.4288 93.2689 85.6652 90.6998 85.9012C88.1306 86.1373 85.5715 85.3542 83.5745 83.7208C81.6045 82.0548 80.3681 79.6814 80.1321 77.1122C79.896 74.5431 80.6791 71.9841 82.3125 69.987L88.5567 62.4973C92.9368 57.2579 95.8541 50.9539 97.0132 44.2238C98.0292 38.3108 97.6702 32.2432 95.9643 26.4912C95.7185 25.6717 95.4563 24.8523 95.1449 24.0492C93.9972 20.9051 92.4435 17.9244 90.5233 15.1829C88.529 12.3561 86.1705 9.80475 83.5089 7.59489C78.1935 3.30716 71.838 0.502598 65.0879 -0.533949C62.2415 -1.01677 59.3502 -1.18167 56.4674 -1.02561C56.4412 -5.27082 55.4858 -9.45881 53.6681 -13.2953C51.8504 -17.1317 49.2146 -20.5236 45.9459 -23.2324C42.9931 -25.6904 39.585 -27.5427 35.9163 -28.6836C32.2477 -29.8244 28.3904 -30.2314 24.5644 -29.8814C20.7385 -29.5314 17.0188 -28.4312 13.618 -26.6436C10.2173 -24.856 7.20214 -22.416 4.74443 -19.463L-1.46698 -11.9733C-5.66809 -6.93675 -9.21944 -1.39213 -12.0377 4.53019C-15.0582 10.9258 -17.1973 17.7015 -18.3965 24.672C-19.2662 29.7751 -19.6231 34.9525 -19.4618 40.1266C-19.3807 43.3875 -19.085 46.6395 -18.5768 49.8616C-17.7872 54.9812 -16.4916 60.0099 -14.7091 64.8737C-12.2989 71.5004 -8.99026 77.7648 -4.87578 83.4914C-1.03012 88.818 3.47425 93.6363 8.53014 97.8316C11.373 100.231 14.3854 102.422 17.544 104.387C19.5495 105.615 21.9285 106.083 24.2497 105.707C26.5709 105.331 28.6805 104.136 30.1961 102.338C31.0882 101.271 31.741 100.025 32.11 98.6836C32.479 97.3424 32.5557 95.9376 32.3351 94.5641C32.1145 93.1907 31.6016 91.8806 30.8311 90.7224C30.0606 89.5642 29.0505 88.585 27.869 87.8508C25.4646 86.3716 23.1646 84.7288 20.9856 82.9342C15.893 78.6887 11.5546 73.6132 8.15323 67.922C4.22535 61.3173 1.65148 53.9968 0.581615 46.3872C0.256285 44.2481 0.053833 42.0922 -0.0247612 39.93C-0.314077 32.2866 0.911201 24.6616 3.58069 17.4937C5.86358 11.2836 9.18902 5.50843 13.414 0.416603L19.6418 -7.07308C21.3101 -9.04062 23.6847 -10.2738 26.2537 -10.5068C28.8228 -10.7398 31.3806 -9.95393 33.3756 -8.31862C34.3586 -7.50007 35.1706 -6.4958 35.7653 -5.36323C36.36 -4.23067 36.7255 -2.992 36.8412 -1.71805C36.9569 -0.444099 36.8204 0.840157 36.4395 2.06131C36.0586 3.28246 35.4407 4.41657 34.6212 5.39879L28.3933 12.8885C24.0211 18.1309 21.1097 24.4343 19.9531 31.162C19.9531 31.375 19.9531 31.5717 19.9531 31.7684C18.9153 38.3492 19.5812 45.0862 21.887 51.3366C24.2491 57.7276 28.2575 63.3813 33.5066 67.7254C38.7611 72.1145 45.082 75.0375 51.8294 76.1984C54.6758 76.6812 57.5671 76.8461 60.4499 76.69C60.4766 80.9504 61.4402 85.1528 63.2727 88.999C65.1052 92.8453 67.7616 96.2412 71.0534 98.946C74.0062 101.404 77.4141 103.256 81.0827 104.397C84.7514 105.538 88.6089 105.945 92.4349 105.595C96.2608 105.245 99.9803 104.145 103.381 102.357C106.782 100.57 109.797 98.1296 112.255 95.1766L118.466 87.7033C122.658 82.66 126.209 77.1166 129.037 71.1998C132.047 64.8014 134.18 58.0264 135.379 51.058C136.263 45.9509 136.625 40.7673 136.461 35.5869M58.5324 57.2857C53.3743 57.2814 48.4288 55.2304 44.7815 51.5831C41.1342 47.9358 39.0832 42.9903 39.0789 37.8322C39.0789 35.2775 39.5821 32.7479 40.5597 30.3877C41.5373 28.0275 42.9703 25.8829 44.7767 24.0765C46.5832 22.2701 48.7276 20.8372 51.0878 19.8595C53.448 18.8819 55.9777 18.3787 58.5324 18.3787C63.6917 18.3787 68.6399 20.4283 72.2882 24.0765C75.9364 27.7247 77.9858 32.6728 77.9858 37.8322C77.9815 42.9903 75.9307 47.9358 72.2834 51.5831C68.6361 55.2304 63.6904 57.2814 58.5324 57.2857Z" fill="#020408" fill-opacity="0.025"/>
</svg>
